<?xml version="1.0" encoding="UTF-8"?>
<svg xmlns="http://www.w3.org/2000/svg" xmlns:xlink="http://www.w3.org/1999/xlink" width="32px" height="32px" viewBox="0 0 32 32" version="1.1">
<g id="surface1">
<path style=" stroke:none;fill-rule:nonzero;fill:rgb(60%,44.313725%,26.27451%);fill-opacity:1;" d="M 15.449219 0 L 15.667969 0 C 16.648438 0.109375 17.640625 0.191406 18.617188 0.359375 C 20.625 0.640625 22.597656 1.152344 24.492188 1.875 C 24.492188 7.671875 24.492188 13.464844 24.492188 19.265625 C 24.484375 20.628906 24.554688 22.007812 24.289062 23.355469 C 23.917969 25.550781 22.867188 27.648438 21.234375 29.171875 C 19.683594 30.640625 17.648438 31.542969 15.546875 31.871094 C 15.328125 31.914062 15.105469 31.914062 14.894531 32 L 11.945312 32 C 11.496094 31.875 11.019531 31.863281 10.566406 31.757812 C 8.671875 31.414062 6.847656 30.746094 5.117188 29.910156 C 4.335938 29.539062 3.632812 29.035156 2.941406 28.527344 C 1.941406 27.789062 0.984375 26.988281 0 26.226562 L 0 25.457031 C 0.410156 25.640625 0.785156 25.886719 1.191406 26.070312 C 2.707031 26.867188 4.351562 27.410156 6.023438 27.753906 C 6.949219 27.945312 7.886719 28.078125 8.828125 28.0625 C 10.339844 28.070312 11.921875 27.710938 13.121094 26.753906 C 14.160156 25.949219 14.804688 24.734375 15.132812 23.484375 C 15.332031 22.625 15.453125 21.746094 15.449219 20.867188 C 15.445312 13.910156 15.445312 6.953125 15.449219 0 Z M 15.449219 0 "/>
</g>
</svg>
