<?xml version="1.0" encoding="UTF-8"?>
<svg xmlns="http://www.w3.org/2000/svg" xmlns:xlink="http://www.w3.org/1999/xlink" width="297px" height="100px" viewBox="0 0 297 100" version="1.1">
<g id="surface1">
<path style=" stroke:none;fill-rule:nonzero;fill:rgb(92.156863%,76.862745%,15.294118%);fill-opacity:1;" d="M 108.355469 13.253906 C 111.273438 12.730469 114.328125 13.140625 116.980469 14.472656 C 117.128906 16.074219 117 17.691406 117.09375 19.300781 C 115.457031 18.597656 113.835938 17.644531 112.003906 17.65625 C 109.996094 17.730469 108 18.847656 107.042969 20.652344 C 106.179688 22.003906 106.175781 23.695312 106.457031 25.214844 C 106.921875 27.210938 108.210938 28.847656 109.378906 30.46875 C 111.78125 33.570312 114.386719 36.515625 116.5 39.835938 C 117.695312 41.777344 118.679688 43.964844 118.660156 46.292969 C 118.648438 48.085938 118.828125 49.929688 118.25 51.660156 C 117.324219 54.847656 114.71875 57.492188 111.53125 58.40625 C 108.355469 59.289062 104.972656 58.761719 101.910156 57.695312 C 101.660156 55.902344 101.875 54.070312 101.75 52.257812 C 103.535156 53.207031 105.414062 54.21875 107.488281 54.234375 C 110.320312 54.183594 112.699219 51.824219 113.273438 49.132812 C 113.945312 46.648438 112.546875 44.261719 111.203125 42.285156 C 109.46875 39.933594 107.566406 37.707031 105.769531 35.40625 C 103.644531 32.839844 101.449219 30.042969 101 26.628906 C 100.753906 24.683594 100.671875 22.667969 101.109375 20.746094 C 101.910156 17.179688 104.742188 14.042969 108.355469 13.253906 Z M 108.355469 13.253906 "/>
<path style=" stroke:none;fill-rule:nonzero;fill:rgb(92.156863%,76.862745%,15.294118%);fill-opacity:1;" d="M 47.875 14.0625 C 50.953125 14.023438 54.039062 14.082031 57.117188 14.046875 C 60.429688 13.984375 63.664062 15.652344 65.710938 18.226562 C 67.859375 20.832031 68.4375 24.277344 69.003906 27.503906 C 69.496094 29.933594 69 32.433594 69.433594 34.867188 C 69.730469 36.417969 69.148438 37.949219 69.238281 39.5 C 69.394531 42.96875 68.859375 46.445312 67.90625 49.773438 C 67.15625 52.398438 65.640625 54.886719 63.289062 56.355469 C 60.949219 57.730469 58.179688 58.226562 55.488281 58.167969 C 52.953125 58.125 50.414062 58.199219 47.875 58.148438 C 47.863281 43.457031 47.867188 28.757812 47.875 14.0625 M 53.511719 18.75 C 53.457031 19.191406 53.425781 19.636719 53.421875 20.078125 C 53.433594 30.761719 53.433594 41.453125 53.417969 52.144531 C 53.425781 52.574219 53.472656 53 53.554688 53.425781 C 54.890625 53.835938 56.285156 53.355469 57.582031 53.003906 C 59.804688 52.40625 61.300781 50.363281 61.992188 48.257812 C 62.824219 45.640625 63.015625 42.882812 63.339844 40.171875 C 63.441406 34.488281 63.613281 28.648438 61.800781 23.179688 C 60.691406 19.835938 56.804688 18.175781 53.511719 18.75 Z M 53.511719 18.75 "/>
<path style=" stroke:none;fill-rule:nonzero;fill:rgb(92.156863%,76.862745%,15.294118%);fill-opacity:1;" d="M 81.84375 14.101562 C 83.4375 14.003906 85.046875 14.011719 86.636719 14.097656 C 87.183594 15.703125 87.375 17.402344 87.769531 19.050781 C 90.664062 32.097656 93.390625 45.175781 96.335938 58.210938 C 94.417969 58.105469 92.492188 58.230469 90.578125 58.121094 C 90.066406 55.261719 89.492188 52.402344 89.082031 49.523438 C 86.074219 49.289062 83.042969 49.4375 80.03125 49.4375 C 79.414062 49.355469 79.398438 50.121094 79.292969 50.53125 C 78.859375 53.066406 78.40625 55.605469 77.898438 58.117188 C 76.058594 58.21875 74.210938 58.160156 72.371094 58.148438 C 72.492188 56.824219 72.882812 55.542969 73.148438 54.238281 C 76.074219 40.863281 78.875 27.460938 81.84375 14.101562 M 83.917969 24.242188 C 83.515625 27.449219 82.8125 30.605469 82.328125 33.792969 C 81.730469 37.5625 80.878906 41.292969 80.433594 45.082031 C 83.011719 45.191406 85.613281 45.203125 88.191406 45.070312 C 87.152344 38.644531 85.789062 32.265625 84.707031 25.847656 C 84.550781 25.269531 84.542969 24.519531 83.917969 24.242188 Z M 83.917969 24.242188 "/>
<path style=" stroke:none;fill-rule:nonzero;fill:rgb(92.156863%,76.862745%,15.294118%);fill-opacity:1;" d="M 122.800781 14.0625 C 129.273438 14.054688 135.742188 14.042969 142.210938 14.070312 C 142.222656 15.699219 142.222656 17.332031 142.210938 18.957031 C 139.976562 19.070312 137.734375 18.84375 135.503906 19.039062 C 135.359375 20.246094 135.425781 21.460938 135.425781 22.667969 C 135.429688 34.496094 135.417969 46.320312 135.429688 58.144531 C 133.484375 58.183594 131.53125 58.171875 129.585938 58.152344 C 129.570312 46.542969 129.585938 34.929688 129.578125 23.316406 C 129.5625 21.894531 129.652344 20.464844 129.507812 19.042969 C 127.277344 18.847656 125.035156 19.0625 122.800781 18.964844 C 122.773438 17.335938 122.773438 15.695312 122.800781 14.0625 Z M 122.800781 14.0625 "/>
<path style=" stroke:none;fill-rule:nonzero;fill:rgb(92.156863%,76.862745%,15.294118%);fill-opacity:1;" d="M 147.683594 14.070312 C 149.628906 14.03125 151.582031 14.042969 153.527344 14.0625 C 153.605469 21.277344 153.414062 28.5 153.617188 35.710938 C 154.035156 35.550781 154.339844 35.222656 154.515625 34.820312 C 157.667969 27.882812 160.972656 21.007812 164.199219 14.117188 C 166.234375 13.945312 168.292969 14.132812 170.332031 14.003906 C 169.140625 16.210938 168.089844 18.503906 166.839844 20.675781 C 164.496094 25.355469 162.164062 30.039062 159.8125 34.707031 C 159.238281 35.589844 159.972656 36.503906 160.332031 37.304688 C 161.460938 39.457031 162.335938 41.730469 163.472656 43.882812 C 165.808594 48.632812 167.929688 53.492188 170.34375 58.207031 C 168.074219 58.078125 165.800781 58.261719 163.539062 58.105469 C 160.855469 52.03125 158.320312 45.886719 155.671875 39.789062 C 155.078125 38.492188 154.679688 37.109375 153.945312 35.878906 L 153.617188 35.871094 C 153.449219 37.402344 153.554688 38.941406 153.535156 40.476562 C 153.523438 46.367188 153.550781 52.261719 153.527344 58.148438 C 151.582031 58.171875 149.628906 58.183594 147.683594 58.144531 C 147.691406 43.457031 147.691406 28.757812 147.683594 14.070312 Z M 147.683594 14.070312 "/>
<path style=" stroke:none;fill-rule:nonzero;fill:rgb(92.156863%,76.862745%,15.294118%);fill-opacity:1;" d="M 184.867188 14.101562 C 186.460938 14.003906 188.070312 14.011719 189.664062 14.097656 C 190.203125 15.707031 190.398438 17.402344 190.792969 19.050781 C 193.679688 32.097656 196.414062 45.175781 199.359375 58.210938 C 197.4375 58.109375 195.515625 58.230469 193.597656 58.121094 C 193.085938 55.261719 192.515625 52.402344 192.101562 49.523438 C 189.097656 49.289062 186.066406 49.4375 183.054688 49.433594 C 182.433594 49.351562 182.421875 50.128906 182.320312 50.53125 C 181.886719 53.066406 181.425781 55.605469 180.925781 58.121094 C 179.085938 58.214844 177.234375 58.160156 175.390625 58.148438 C 175.5 56.910156 175.855469 55.710938 176.113281 54.5 C 179.058594 41.039062 181.882812 27.546875 184.867188 14.101562 M 186.941406 24.253906 C 186.253906 28.917969 185.375 33.550781 184.566406 38.195312 C 184.273438 40.5 183.609375 42.757812 183.457031 45.082031 C 186.039062 45.191406 188.636719 45.203125 191.21875 45.070312 C 190.144531 38.550781 188.792969 32.078125 187.675781 25.570312 C 187.53125 25.09375 187.496094 24.433594 186.941406 24.253906 Z M 186.941406 24.253906 "/>
<path style=" stroke:none;fill-rule:nonzero;fill:rgb(92.156863%,76.862745%,15.294118%);fill-opacity:1;" d="M 205.804688 14.0625 C 208.773438 14.023438 211.746094 14.082031 214.722656 14.046875 C 217.894531 13.960938 221.21875 15.613281 222.660156 18.53125 C 224.144531 21.496094 224.042969 24.902344 223.878906 28.125 C 223.6875 29.835938 223.34375 31.578125 222.492188 33.089844 C 221.449219 34.734375 219.921875 36.039062 218.164062 36.855469 C 217.5625 37.03125 217.816406 37.695312 217.945312 38.105469 C 220.398438 44.792969 222.75 51.523438 225.230469 58.207031 C 223.191406 58.09375 221.144531 58.25 219.113281 58.105469 C 216.777344 51.636719 214.710938 45.070312 212.503906 38.546875 C 212.285156 38.171875 212.269531 37.46875 211.714844 37.460938 C 211.492188 44.34375 211.664062 51.246094 211.636719 58.136719 C 209.691406 58.191406 207.742188 58.171875 205.804688 58.152344 C 205.789062 43.460938 205.792969 28.757812 205.804688 14.0625 M 211.441406 18.734375 C 211.226562 21.871094 211.414062 25.03125 211.351562 28.175781 C 211.417969 29.789062 211.167969 31.433594 211.507812 33.015625 C 211.972656 33.289062 212.535156 33.152344 213.039062 33.085938 C 214.636719 32.761719 216.367188 32.175781 217.253906 30.699219 C 218.378906 28.882812 218.101562 26.65625 218.125 24.613281 C 218.164062 22.574219 217.34375 20.285156 215.410156 19.351562 C 214.160156 18.863281 212.789062 18.507812 211.441406 18.734375 Z M 211.441406 18.734375 "/>
<path style=" stroke:none;fill-rule:nonzero;fill:rgb(92.156863%,76.862745%,15.294118%);fill-opacity:1;" d="M 231.960938 14.0625 C 233.902344 14.042969 235.851562 14.023438 237.792969 14.078125 C 237.761719 28.761719 237.761719 43.453125 237.792969 58.140625 C 235.851562 58.191406 233.90625 58.171875 231.960938 58.152344 C 231.949219 43.460938 231.953125 28.757812 231.960938 14.0625 Z M 231.960938 14.0625 "/>
<path style=" stroke:none;fill-rule:nonzero;fill:rgb(92.156863%,76.862745%,15.294118%);fill-opacity:1;" d="M 128.390625 67.929688 C 130.089844 66.570312 132.371094 66.730469 134.398438 66.941406 C 134.527344 67.785156 134.523438 68.648438 134.492188 69.507812 C 133.683594 69.410156 132.886719 69.070312 132.066406 69.21875 C 130.394531 69.71875 129.207031 71.242188 128.75 72.878906 C 128.378906 74.246094 128.175781 75.648438 128.046875 77.058594 C 127.960938 79.960938 127.886719 82.953125 128.808594 85.742188 C 129.289062 87.152344 130.511719 88.386719 132.023438 88.558594 C 132.917969 88.675781 133.722656 88.203125 134.542969 87.914062 C 134.535156 88.78125 134.53125 89.648438 134.425781 90.503906 C 132.355469 91.167969 129.878906 91.117188 128.074219 89.769531 C 126.78125 88.976562 126.054688 87.566406 125.621094 86.15625 C 124.675781 83.21875 125.179688 80.097656 125.046875 77.074219 C 125.125 73.828125 125.507812 69.960938 128.390625 67.929688 Z M 128.390625 67.929688 "/>
<path style=" stroke:none;fill-rule:nonzero;fill:rgb(92.156863%,76.862745%,15.294118%);fill-opacity:1;" d="M 201.605469 66.945312 C 203.640625 66.71875 205.976562 66.5625 207.675781 67.945312 C 209.210938 69.203125 209.507812 71.324219 209.78125 73.183594 C 210.183594 75.539062 209.976562 77.933594 210.035156 80.304688 C 210.082031 82.375 209.871094 84.449219 209.492188 86.480469 C 209.074219 88.566406 207.464844 90.542969 205.261719 90.816406 C 203.886719 90.914062 202.457031 91 201.113281 90.644531 C 199.144531 90.0625 198.027344 88.058594 197.644531 86.15625 C 197.050781 82.773438 196.992188 79.316406 197.183594 75.890625 C 197.472656 73.808594 197.457031 71.625 198.300781 69.660156 C 198.890625 68.300781 200.140625 67.226562 201.605469 66.945312 M 202.84375 69.292969 C 202.042969 69.539062 201.425781 70.203125 201.148438 70.988281 C 200.035156 74.082031 200.4375 77.414062 200.355469 80.632812 C 200.316406 82.339844 200.53125 84.046875 200.847656 85.722656 C 201.050781 86.761719 201.527344 87.914062 202.589844 88.316406 C 203.902344 88.988281 205.472656 88.054688 206.074219 86.839844 C 206.976562 84.902344 206.761719 82.710938 206.789062 80.636719 C 206.722656 77.46875 207.070312 74.21875 206.136719 71.144531 C 205.730469 69.832031 204.199219 68.792969 202.84375 69.292969 Z M 202.84375 69.292969 "/>
<path style=" stroke:none;fill-rule:nonzero;fill:rgb(92.156863%,76.862745%,15.294118%);fill-opacity:1;" d="M 47.902344 67.191406 C 48.878906 67.109375 49.859375 67.109375 50.835938 67.179688 C 50.863281 73.824219 50.824219 80.472656 50.855469 87.117188 C 50.851562 87.894531 50.867188 88.761719 50.320312 89.378906 C 48.832031 91.453125 45.863281 91.035156 43.710938 90.519531 C 43.617188 89.640625 43.625 88.746094 43.652344 87.863281 C 44.769531 88.089844 46.085938 89.0625 47.113281 88.121094 C 47.867188 87.609375 47.949219 86.65625 47.929688 85.820312 C 47.902344 79.609375 47.945312 73.398438 47.902344 67.191406 Z M 47.902344 67.191406 "/>
<path style=" stroke:none;fill-rule:nonzero;fill:rgb(92.156863%,76.862745%,15.294118%);fill-opacity:1;" d="M 68.238281 67.1875 C 69.214844 67.109375 70.195312 67.109375 71.175781 67.179688 C 71.195312 72.960938 71.179688 78.75 71.175781 84.539062 C 71.1875 85.636719 71.394531 86.765625 71.960938 87.71875 C 72.792969 88.816406 74.671875 88.8125 75.507812 87.726562 C 76.113281 86.550781 76.273438 85.191406 76.296875 83.886719 C 76.292969 78.316406 76.277344 72.746094 76.296875 67.175781 C 77.269531 67.109375 78.257812 67.109375 79.234375 67.1875 C 79.230469 73.1875 79.21875 79.1875 79.238281 85.183594 C 79.257812 86.847656 78.796875 88.636719 77.574219 89.820312 C 76.238281 91.050781 74.3125 90.953125 72.628906 90.84375 C 70.261719 90.695312 68.25 88.507812 68.246094 86.132812 C 68.234375 79.820312 68.25 73.5 68.238281 67.1875 Z M 68.238281 67.1875 "/>
<path style=" stroke:none;fill-rule:nonzero;fill:rgb(92.156863%,76.862745%,15.294118%);fill-opacity:1;" d="M 96.320312 67.160156 C 97.140625 67.125 97.996094 67.050781 98.789062 67.308594 C 100.597656 72.082031 102.378906 76.875 104.113281 81.683594 C 104.316406 82.144531 104.441406 82.722656 104.933594 82.972656 C 105.179688 77.714844 104.949219 72.441406 105.039062 67.175781 C 105.90625 67.109375 106.777344 67.109375 107.644531 67.1875 C 107.613281 74.96875 107.613281 82.746094 107.644531 90.519531 C 106.804688 90.59375 105.949219 90.613281 105.113281 90.476562 C 103.28125 85.535156 101.433594 80.585938 99.640625 75.617188 C 99.527344 75.261719 99.328125 74.960938 99.054688 74.710938 C 98.808594 79.972656 99.042969 85.261719 98.949219 90.53125 C 98.070312 90.59375 97.195312 90.59375 96.320312 90.53125 C 96.308594 82.742188 96.308594 74.949219 96.320312 67.160156 Z M 96.320312 67.160156 "/>
<path style=" stroke:none;fill-rule:nonzero;fill:rgb(92.156863%,76.862745%,15.294118%);fill-opacity:1;" d="M 150.25 67.171875 C 153.601562 67.152344 156.960938 67.15625 160.3125 67.171875 C 160.371094 67.941406 160.371094 68.714844 160.3125 69.484375 C 159.144531 69.542969 157.972656 69.425781 156.816406 69.554688 C 156.636719 76.539062 156.792969 83.535156 156.746094 90.519531 C 155.765625 90.59375 154.78125 90.59375 153.804688 90.53125 C 153.730469 83.546875 153.910156 76.546875 153.722656 69.566406 C 152.570312 69.421875 151.40625 69.539062 150.25 69.484375 C 150.195312 68.71875 150.195312 67.945312 150.25 67.171875 Z M 150.25 67.171875 "/>
<path style=" stroke:none;fill-rule:nonzero;fill:rgb(92.156863%,76.862745%,15.294118%);fill-opacity:1;" d="M 176.75 67.1875 C 177.824219 67.113281 178.910156 67.113281 179.988281 67.191406 C 179.953125 74.964844 179.957031 82.738281 179.988281 90.515625 C 178.90625 90.59375 177.824219 90.59375 176.75 90.519531 C 176.757812 82.746094 176.753906 74.964844 176.75 67.1875 Z M 176.75 67.1875 "/>
<path style=" stroke:none;fill-rule:nonzero;fill:rgb(92.156863%,76.862745%,15.294118%);fill-opacity:1;" d="M 227.117188 67.160156 C 227.9375 67.128906 228.792969 67.042969 229.582031 67.308594 C 231.402344 72.082031 233.179688 76.878906 234.914062 81.683594 C 235.105469 82.15625 235.253906 82.707031 235.730469 82.984375 C 235.976562 77.71875 235.742188 72.445312 235.835938 67.171875 C 236.699219 67.109375 237.574219 67.109375 238.4375 67.1875 C 238.410156 74.96875 238.410156 82.746094 238.4375 90.523438 C 237.597656 90.59375 236.746094 90.613281 235.910156 90.476562 C 234.246094 86 232.582031 81.515625 230.953125 77.023438 C 230.628906 76.234375 230.484375 75.320312 229.859375 74.707031 C 229.601562 79.96875 229.84375 85.261719 229.746094 90.53125 C 228.871094 90.59375 227.988281 90.59375 227.117188 90.53125 C 227.109375 82.742188 227.101562 74.949219 227.117188 67.160156 Z M 227.117188 67.160156 "/>
</g>
</svg>
